<svg xmlns="http://www.w3.org/2000/svg" xmlns:xlink="http://www.w3.org/1999/xlink" width="40" zoomAndPan="magnify" viewBox="0 0 30 30.000001" height="40" preserveAspectRatio="xMidYMid meet" version="1.0"><defs><clipPath id="ad2a1c0e45"><path d="M 5.417969 0 L 24.289062 0 L 24.289062 29 L 5.417969 29 Z M 5.417969 0 " clip-rule="nonzero"/></clipPath></defs><g clip-path="url(#ad2a1c0e45)"><path fill="#fff" d="M 10.082031 0.101562 C 9.910156 0.105469 9.753906 0.171875 9.632812 0.289062 L 5.753906 4.199219 C 5.5 4.453125 5.5 4.867188 5.746094 5.121094 L 14.914062 14.503906 L 5.675781 23.808594 C 5.421875 24.066406 5.417969 24.476562 5.671875 24.734375 L 9.519531 28.671875 C 9.769531 28.929688 10.179688 28.933594 10.429688 28.675781 L 24.011719 15.003906 C 24.261719 14.75 24.265625 14.335938 24.011719 14.078125 L 10.546875 0.296875 C 10.421875 0.167969 10.253906 0.0976562 10.082031 0.101562 Z M 10.082031 0.101562 " fill-opacity="1" fill-rule="nonzero"/></g></svg>