<svg xmlns="http://www.w3.org/2000/svg" xmlns:xlink="http://www.w3.org/1999/xlink" width="40" zoomAndPan="magnify" viewBox="0 0 30 30.000001" height="40" preserveAspectRatio="xMidYMid meet" version="1.0"><defs><clipPath id="253a46e7a8"><path d="M 0.484375 0 L 29.515625 0 L 29.515625 29.03125 L 0.484375 29.03125 Z M 0.484375 0 " clip-rule="nonzero"/></clipPath></defs><g clip-path="url(#253a46e7a8)"><path fill="#fff" d="M 28.246094 29.019531 L 1.726562 29.019531 C 1.558594 29.019531 1.398438 28.984375 1.246094 28.921875 C 1.089844 28.859375 0.957031 28.765625 0.839844 28.648438 C 0.71875 28.53125 0.628906 28.394531 0.566406 28.242188 C 0.5 28.089844 0.46875 27.929688 0.46875 27.761719 L 0.46875 1.242188 C 0.46875 1.074219 0.5 0.914062 0.566406 0.761719 C 0.628906 0.609375 0.71875 0.472656 0.839844 0.355469 C 0.957031 0.238281 1.089844 0.144531 1.246094 0.0820312 C 1.398438 0.0195312 1.558594 -0.015625 1.726562 -0.015625 L 28.246094 -0.015625 C 28.410156 -0.015625 28.574219 0.0195312 28.726562 0.0820312 C 28.878906 0.144531 29.015625 0.238281 29.132812 0.355469 C 29.25 0.472656 29.34375 0.609375 29.40625 0.761719 C 29.46875 0.914062 29.5 1.074219 29.503906 1.242188 L 29.503906 27.761719 C 29.5 27.929688 29.46875 28.089844 29.40625 28.242188 C 29.34375 28.394531 29.25 28.53125 29.132812 28.648438 C 29.015625 28.765625 28.878906 28.859375 28.726562 28.921875 C 28.574219 28.984375 28.410156 29.019531 28.246094 29.019531 Z M 1.726562 0.695312 C 1.574219 0.695312 1.445312 0.746094 1.339844 0.855469 C 1.230469 0.960938 1.179688 1.089844 1.179688 1.242188 L 1.179688 27.761719 C 1.179688 27.914062 1.230469 28.042969 1.339844 28.148438 C 1.445312 28.257812 1.574219 28.308594 1.726562 28.308594 L 28.246094 28.308594 C 28.398438 28.308594 28.527344 28.257812 28.632812 28.148438 C 28.738281 28.042969 28.792969 27.914062 28.792969 27.761719 L 28.792969 1.242188 C 28.792969 1.089844 28.738281 0.960938 28.632812 0.855469 C 28.527344 0.746094 28.398438 0.695312 28.246094 0.695312 Z M 1.726562 0.695312 " fill-opacity="1" fill-rule="nonzero"/></g><path fill="#fff" d="M 9.046875 15.8125 L 9.046875 19.839844 L 6.464844 19.839844 L 6.464844 9 L 10.738281 9 C 11.484375 8.96875 12.214844 9.070312 12.925781 9.304688 C 13.476562 9.542969 13.929688 9.90625 14.277344 10.398438 C 14.699219 10.972656 14.898438 11.613281 14.875 12.328125 C 14.871094 12.871094 14.765625 13.390625 14.554688 13.890625 C 14.367188 14.371094 14.066406 14.773438 13.660156 15.089844 C 13.320312 15.355469 12.949219 15.550781 12.535156 15.667969 C 11.972656 15.785156 11.40625 15.832031 10.832031 15.8125 Z M 8.960938 13.84375 L 10.609375 13.84375 C 11.242188 13.84375 11.683594 13.699219 11.9375 13.40625 C 12.195312 13.121094 12.320312 12.789062 12.316406 12.40625 C 12.335938 11.992188 12.195312 11.640625 11.894531 11.359375 C 11.511719 11.0625 11.082031 10.929688 10.601562 10.96875 L 8.960938 10.96875 Z M 8.960938 13.84375 " fill-opacity="1" fill-rule="nonzero"/><path fill="#fff" d="M 18.535156 9 L 18.535156 12.828125 C 18.71875 12.449219 18.992188 12.15625 19.351562 11.941406 C 19.710938 11.730469 20.101562 11.632812 20.519531 11.652344 C 20.957031 11.640625 21.367188 11.730469 21.753906 11.929688 C 22.144531 12.128906 22.460938 12.40625 22.703125 12.765625 C 23.238281 13.511719 23.503906 14.53125 23.503906 15.828125 C 23.503906 17.078125 23.230469 18.085938 22.679688 18.851562 C 22.464844 19.121094 22.210938 19.34375 21.917969 19.527344 C 21.628906 19.710938 21.316406 19.84375 20.980469 19.921875 C 20.644531 20 20.308594 20.023438 19.964844 19.988281 C 19.625 19.957031 19.296875 19.867188 18.984375 19.726562 C 18.546875 19.441406 18.207031 19.066406 17.960938 18.605469 C 17.808594 18.761719 17.632812 19.171875 17.429688 19.839844 L 16.167969 19.839844 L 16.167969 9 Z M 18.535156 16.660156 C 18.5 17.128906 18.621094 17.550781 18.886719 17.933594 C 19.097656 18.214844 19.382812 18.359375 19.734375 18.359375 C 20.152344 18.363281 20.472656 18.1875 20.703125 17.839844 C 20.957031 17.492188 21.085938 16.820312 21.085938 15.820312 C 21.085938 14.683594 20.953125 13.96875 20.691406 13.675781 C 20.460938 13.390625 20.164062 13.246094 19.796875 13.238281 C 19.398438 13.230469 19.089844 13.394531 18.875 13.730469 C 18.621094 14.164062 18.503906 14.628906 18.535156 15.128906 Z M 18.535156 16.660156 " fill-opacity="1" fill-rule="nonzero"/><path fill="#fff" d="M 13.199219 23.519531 L 11.871094 23.519531 L 11.871094 21.371094 L 12.152344 21.371094 L 12.152344 23.265625 L 13.199219 23.265625 Z M 13.199219 23.519531 " fill-opacity="1" fill-rule="nonzero"/><path fill="#fff" d="M 14.164062 23.554688 C 13.949219 23.566406 13.765625 23.496094 13.613281 23.339844 C 13.460938 23.171875 13.390625 22.972656 13.40625 22.742188 C 13.390625 22.515625 13.460938 22.316406 13.605469 22.144531 C 13.753906 22.003906 13.929688 21.929688 14.136719 21.929688 C 14.339844 21.929688 14.515625 22 14.664062 22.140625 C 14.8125 22.316406 14.878906 22.515625 14.863281 22.742188 L 14.863281 22.808594 L 13.691406 22.808594 C 13.691406 22.960938 13.742188 23.09375 13.839844 23.207031 C 13.929688 23.300781 14.039062 23.34375 14.164062 23.339844 C 14.257812 23.339844 14.34375 23.316406 14.425781 23.265625 C 14.503906 23.21875 14.546875 23.148438 14.546875 23.054688 L 14.832031 23.054688 C 14.816406 23.210938 14.746094 23.335938 14.617188 23.425781 C 14.480469 23.519531 14.328125 23.5625 14.164062 23.554688 Z M 14.570312 22.59375 C 14.558594 22.460938 14.507812 22.351562 14.417969 22.257812 C 14.339844 22.183594 14.242188 22.144531 14.132812 22.144531 C 14.023438 22.144531 13.929688 22.183594 13.847656 22.257812 C 13.757812 22.351562 13.707031 22.464844 13.695312 22.59375 Z M 14.570312 22.59375 " fill-opacity="1" fill-rule="nonzero"/><path fill="#fff" d="M 16.15625 23.359375 C 16.003906 23.5 15.820312 23.566406 15.613281 23.554688 C 15.46875 23.5625 15.34375 23.519531 15.230469 23.429688 C 15.128906 23.347656 15.078125 23.238281 15.082031 23.109375 C 15.082031 22.746094 15.394531 22.5625 16.023438 22.5625 L 16.15625 22.5625 C 16.160156 22.480469 16.152344 22.402344 16.140625 22.320312 C 16.125 22.265625 16.089844 22.222656 16.039062 22.195312 C 15.960938 22.15625 15.875 22.140625 15.785156 22.144531 C 15.539062 22.144531 15.410156 22.234375 15.402344 22.410156 L 15.128906 22.410156 C 15.148438 22.089844 15.371094 21.929688 15.796875 21.929688 C 15.964844 21.921875 16.121094 21.960938 16.265625 22.046875 C 16.398438 22.175781 16.457031 22.332031 16.429688 22.515625 L 16.429688 23.519531 L 16.15625 23.519531 Z M 16.15625 23.109375 L 16.15625 22.765625 L 15.96875 22.765625 C 15.566406 22.765625 15.367188 22.875 15.367188 23.09375 C 15.363281 23.171875 15.390625 23.230469 15.453125 23.277344 C 15.527344 23.324219 15.605469 23.34375 15.691406 23.339844 C 15.785156 23.339844 15.871094 23.320312 15.957031 23.277344 C 16.039062 23.242188 16.105469 23.183594 16.15625 23.113281 Z M 16.15625 23.109375 " fill-opacity="1" fill-rule="nonzero"/><path fill="#fff" d="M 17.824219 23.332031 C 17.769531 23.402344 17.703125 23.457031 17.621094 23.496094 C 17.542969 23.535156 17.457031 23.554688 17.367188 23.558594 C 17.28125 23.558594 17.195312 23.539062 17.113281 23.5 C 17.035156 23.460938 16.964844 23.410156 16.910156 23.339844 C 16.785156 23.164062 16.730469 22.96875 16.742188 22.753906 C 16.730469 22.53125 16.792969 22.328125 16.929688 22.152344 C 17.050781 22 17.207031 21.925781 17.398438 21.929688 C 17.5625 21.925781 17.703125 21.976562 17.824219 22.085938 L 17.824219 21.371094 L 18.101562 21.371094 L 18.101562 23.519531 L 17.824219 23.519531 Z M 17.824219 23.074219 L 17.824219 22.335938 C 17.71875 22.210938 17.582031 22.148438 17.417969 22.144531 C 17.292969 22.144531 17.199219 22.195312 17.132812 22.296875 C 17.050781 22.441406 17.015625 22.59375 17.027344 22.753906 C 17.015625 22.910156 17.050781 23.054688 17.128906 23.191406 C 17.191406 23.292969 17.285156 23.34375 17.40625 23.339844 C 17.59375 23.324219 17.734375 23.238281 17.824219 23.074219 Z M 17.824219 23.074219 " fill-opacity="1" fill-rule="nonzero"/><path fill="#fff" d="M 12.777344 27.109375 L 11.355469 27.109375 C 11.355469 26.972656 11.394531 26.847656 11.476562 26.734375 C 11.605469 26.566406 11.753906 26.421875 11.921875 26.292969 C 12.085938 26.171875 12.234375 26.03125 12.367188 25.878906 C 12.449219 25.773438 12.488281 25.65625 12.488281 25.523438 C 12.492188 25.414062 12.457031 25.324219 12.382812 25.246094 C 12.300781 25.167969 12.207031 25.136719 12.09375 25.140625 C 11.988281 25.140625 11.898438 25.175781 11.820312 25.246094 C 11.734375 25.328125 11.691406 25.429688 11.691406 25.546875 L 11.40625 25.546875 C 11.414062 25.367188 11.484375 25.214844 11.613281 25.09375 C 11.753906 24.972656 11.917969 24.914062 12.101562 24.921875 C 12.289062 24.910156 12.457031 24.96875 12.597656 25.097656 C 12.71875 25.214844 12.777344 25.359375 12.769531 25.527344 C 12.773438 25.679688 12.730469 25.816406 12.640625 25.941406 C 12.488281 26.125 12.320312 26.292969 12.128906 26.441406 C 11.875 26.652344 11.746094 26.789062 11.738281 26.851562 L 12.777344 26.851562 Z M 12.777344 27.109375 " fill-opacity="1" fill-rule="nonzero"/><path fill="#fff" d="M 13.765625 24.925781 C 14.230469 24.925781 14.464844 25.296875 14.464844 26.039062 C 14.464844 26.777344 14.230469 27.148438 13.765625 27.148438 C 13.296875 27.148438 13.066406 26.777344 13.066406 26.039062 C 13.066406 25.296875 13.296875 24.925781 13.765625 24.925781 Z M 13.765625 26.929688 C 13.910156 26.933594 14.011719 26.867188 14.074219 26.734375 C 14.160156 26.507812 14.195312 26.277344 14.179688 26.039062 C 14.195312 25.796875 14.160156 25.566406 14.074219 25.339844 C 14.011719 25.210938 13.910156 25.144531 13.765625 25.144531 C 13.621094 25.144531 13.519531 25.210938 13.457031 25.339844 C 13.371094 25.566406 13.335938 25.796875 13.351562 26.039062 C 13.335938 26.277344 13.371094 26.507812 13.457031 26.734375 C 13.515625 26.867188 13.621094 26.929688 13.765625 26.929688 Z M 13.765625 26.929688 " fill-opacity="1" fill-rule="nonzero"/><path fill="#fff" d="M 16.132812 25.15625 L 15.351562 27.113281 L 15.042969 27.113281 L 15.84375 25.21875 L 14.742188 25.21875 L 14.742188 24.964844 L 16.132812 24.964844 Z M 16.132812 25.15625 " fill-opacity="1" fill-rule="nonzero"/><path fill="#fff" d="M 16.535156 26.808594 L 16.835938 26.808594 L 16.835938 27.109375 L 16.535156 27.109375 Z M 16.535156 26.808594 " fill-opacity="1" fill-rule="nonzero"/><path fill="#fff" d="M 18.617188 27.109375 L 17.195312 27.109375 C 17.195312 26.972656 17.238281 26.847656 17.316406 26.734375 C 17.445312 26.566406 17.59375 26.421875 17.761719 26.292969 C 17.925781 26.171875 18.074219 26.03125 18.207031 25.878906 C 18.289062 25.773438 18.328125 25.65625 18.328125 25.523438 C 18.332031 25.414062 18.300781 25.324219 18.226562 25.246094 C 18.144531 25.167969 18.046875 25.136719 17.9375 25.140625 C 17.832031 25.140625 17.738281 25.175781 17.660156 25.246094 C 17.578125 25.328125 17.535156 25.429688 17.53125 25.546875 L 17.246094 25.546875 C 17.253906 25.367188 17.324219 25.214844 17.457031 25.09375 C 17.59375 24.972656 17.757812 24.914062 17.941406 24.921875 C 18.132812 24.910156 18.296875 24.96875 18.4375 25.097656 C 18.558594 25.214844 18.617188 25.359375 18.613281 25.527344 C 18.613281 25.679688 18.570312 25.816406 18.484375 25.941406 C 18.332031 26.125 18.160156 26.292969 17.972656 26.441406 C 17.714844 26.652344 17.585938 26.789062 17.582031 26.851562 L 18.617188 26.851562 Z M 18.617188 27.109375 " fill-opacity="1" fill-rule="nonzero"/><path fill="#fff" d="M 4.511719 4.351562 C 4.925781 4.542969 5.132812 4.800781 5.132812 5.125 C 5.140625 5.371094 5.050781 5.574219 4.863281 5.734375 C 4.648438 5.886719 4.414062 5.964844 4.152344 5.964844 C 3.890625 5.964844 3.652344 5.886719 3.441406 5.734375 C 3.253906 5.574219 3.164062 5.371094 3.171875 5.125 C 3.171875 4.800781 3.375 4.542969 3.789062 4.351562 C 3.472656 4.214844 3.304688 3.972656 3.285156 3.625 C 3.28125 3.410156 3.359375 3.234375 3.523438 3.097656 C 3.710938 2.957031 3.917969 2.890625 4.152344 2.890625 C 4.382812 2.890625 4.589844 2.957031 4.777344 3.097656 C 4.941406 3.234375 5.019531 3.410156 5.015625 3.625 C 4.996094 3.96875 4.828125 4.210938 4.511719 4.351562 Z M 4.738281 5.125 C 4.738281 4.992188 4.691406 4.882812 4.597656 4.792969 C 4.464844 4.675781 4.316406 4.582031 4.152344 4.519531 C 3.984375 4.582031 3.839844 4.675781 3.707031 4.792969 C 3.609375 4.882812 3.5625 4.992188 3.5625 5.125 C 3.554688 5.28125 3.609375 5.414062 3.726562 5.523438 C 3.851562 5.617188 3.992188 5.664062 4.148438 5.664062 C 4.308594 5.664062 4.449219 5.617188 4.574219 5.523438 C 4.691406 5.414062 4.746094 5.28125 4.738281 5.125 Z M 4.152344 4.191406 C 4.464844 4.050781 4.621094 3.863281 4.621094 3.625 C 4.628906 3.5 4.585938 3.390625 4.496094 3.304688 C 4.394531 3.226562 4.28125 3.1875 4.152344 3.1875 C 4.023438 3.1875 3.910156 3.226562 3.804688 3.304688 C 3.714844 3.390625 3.675781 3.5 3.683594 3.625 C 3.683594 3.863281 3.839844 4.050781 4.152344 4.191406 Z M 4.152344 4.191406 " fill-opacity="1" fill-rule="nonzero"/><path fill="#fff" d="M 7.40625 5.914062 L 5.433594 5.914062 C 5.4375 5.722656 5.492188 5.550781 5.601562 5.394531 C 5.78125 5.164062 5.988281 4.960938 6.222656 4.785156 C 6.449219 4.613281 6.652344 4.421875 6.835938 4.207031 C 6.949219 4.0625 7.003906 3.898438 7.003906 3.714844 C 7.011719 3.566406 6.964844 3.4375 6.863281 3.328125 C 6.75 3.226562 6.617188 3.179688 6.460938 3.1875 C 6.316406 3.183594 6.1875 3.230469 6.082031 3.328125 C 5.964844 3.445312 5.90625 3.582031 5.902344 3.746094 L 5.507812 3.746094 C 5.515625 3.5 5.613281 3.292969 5.796875 3.121094 C 5.988281 2.953125 6.214844 2.875 6.46875 2.890625 C 6.730469 2.871094 6.960938 2.953125 7.15625 3.128906 C 7.324219 3.292969 7.402344 3.492188 7.398438 3.726562 C 7.402344 3.9375 7.339844 4.125 7.21875 4.296875 C 7.007812 4.554688 6.773438 4.785156 6.511719 4.988281 C 6.15625 5.285156 5.976562 5.476562 5.96875 5.5625 L 7.40625 5.5625 Z M 7.40625 5.914062 " fill-opacity="1" fill-rule="nonzero"/></svg>