<svg xmlns="http://www.w3.org/2000/svg" xmlns:xlink="http://www.w3.org/1999/xlink" width="40" zoomAndPan="magnify" viewBox="0 0 30 30.000001" height="40" preserveAspectRatio="xMidYMid meet" version="1.0"><defs><clipPath id="e0fcd26c85"><path d="M 2 4.15625 L 28 4.15625 L 28 16 L 2 16 Z M 2 4.15625 " clip-rule="nonzero"/></clipPath><clipPath id="a95f94255f"><path d="M 0.484375 5 L 29.515625 5 L 29.515625 25.203125 L 0.484375 25.203125 Z M 0.484375 5 " clip-rule="nonzero"/></clipPath></defs><g clip-path="url(#e0fcd26c85)"><path fill="#fff" d="M 27.597656 4.398438 C 27.210938 4.234375 26.8125 4.152344 26.394531 4.15625 L 3.605469 4.15625 C 3.210938 4.15625 2.828125 4.234375 2.464844 4.386719 L 15 15.039062 Z M 27.597656 4.398438 " fill-opacity="1" fill-rule="nonzero"/></g><g clip-path="url(#a95f94255f)"><path fill="#fff" d="M 29.128906 5.839844 L 15.664062 17.214844 C 15.472656 17.378906 15.25 17.457031 15 17.457031 C 14.75 17.457031 14.527344 17.378906 14.335938 17.214844 L 0.890625 5.796875 C 0.632812 6.269531 0.503906 6.773438 0.496094 7.3125 L 0.496094 22.046875 C 0.496094 22.464844 0.574219 22.867188 0.734375 23.253906 C 0.890625 23.640625 1.113281 23.984375 1.40625 24.277344 C 1.699219 24.574219 2.035156 24.804688 2.414062 24.964844 C 2.796875 25.125 3.191406 25.203125 3.605469 25.203125 L 26.394531 25.203125 C 26.808594 25.203125 27.203125 25.125 27.585938 24.964844 C 27.964844 24.804688 28.300781 24.574219 28.59375 24.277344 C 28.886719 23.984375 29.109375 23.640625 29.265625 23.253906 C 29.425781 22.867188 29.503906 22.464844 29.503906 22.046875 L 29.503906 7.3125 C 29.5 6.789062 29.375 6.300781 29.128906 5.839844 Z M 29.128906 5.839844 " fill-opacity="1" fill-rule="nonzero"/></g></svg>