<svg xmlns="http://www.w3.org/2000/svg" xmlns:xlink="http://www.w3.org/1999/xlink" width="40" zoomAndPan="magnify" viewBox="0 0 30 30.000001" height="40" preserveAspectRatio="xMidYMid meet" version="1.0"><defs><clipPath id="9edc1758b7"><path d="M 2 0 L 29.515625 0 L 29.515625 27 L 2 27 Z M 2 0 " clip-rule="nonzero"/></clipPath></defs><g clip-path="url(#9edc1758b7)"><path fill="#fff" d="M 22.695312 17.40625 C 22.222656 17.128906 21.644531 17.136719 21.171875 17.414062 L 18.796875 18.832031 C 18.265625 19.148438 17.601562 19.109375 17.113281 18.730469 C 16.269531 18.070312 14.914062 16.964844 13.730469 15.78125 C 12.550781 14.601562 11.441406 13.242188 10.785156 12.398438 C 10.402344 11.914062 10.367188 11.25 10.683594 10.714844 L 12.097656 8.339844 C 12.378906 7.871094 12.382812 7.285156 12.105469 6.816406 L 8.617188 0.859375 C 8.28125 0.285156 7.609375 0 6.960938 0.160156 C 6.328125 0.3125 5.511719 0.6875 4.652344 1.546875 C 1.964844 4.234375 0.539062 8.765625 10.644531 18.871094 C 20.75 28.976562 25.28125 27.550781 27.96875 24.863281 C 28.828125 24.003906 29.203125 23.183594 29.355469 22.550781 C 29.515625 21.902344 29.234375 21.238281 28.660156 20.898438 C 27.226562 20.058594 24.128906 18.246094 22.695312 17.40625 Z M 22.695312 17.40625 " fill-opacity="1" fill-rule="nonzero"/></g></svg>