<svg xmlns="http://www.w3.org/2000/svg" xmlns:xlink="http://www.w3.org/1999/xlink" width="40" zoomAndPan="magnify" viewBox="0 0 30 30.000001" height="40" preserveAspectRatio="xMidYMid meet" version="1.0"><defs><clipPath id="cf30de8c9e"><path d="M 0.484375 0.582031 L 29.515625 0.582031 L 29.515625 28.160156 L 0.484375 28.160156 Z M 0.484375 0.582031 " clip-rule="nonzero"/></clipPath></defs><g clip-path="url(#cf30de8c9e)"><path fill="#ffcc51" d="M 22.65625 27.597656 L 15.921875 24.242188 C 15.46875 24.019531 15.019531 24.027344 14.578125 24.269531 L 7.96875 27.859375 C 7.726562 27.988281 7.46875 28.046875 7.191406 28.03125 C 6.917969 28.015625 6.667969 27.933594 6.441406 27.777344 C 6.21875 27.621094 6.050781 27.417969 5.941406 27.167969 C 5.835938 26.914062 5.800781 26.65625 5.84375 26.386719 L 6.988281 19.007812 C 7.0625 18.511719 6.917969 18.09375 6.546875 17.75 L 1.054688 12.636719 C 0.855469 12.453125 0.71875 12.226562 0.648438 11.964844 C 0.578125 11.699219 0.582031 11.4375 0.664062 11.179688 C 0.742188 10.917969 0.886719 10.699219 1.09375 10.519531 C 1.300781 10.339844 1.539062 10.230469 1.8125 10.183594 L 9.253906 8.980469 C 9.753906 8.898438 10.109375 8.632812 10.328125 8.179688 L 13.542969 1.429688 C 13.660156 1.183594 13.835938 0.984375 14.066406 0.835938 C 14.296875 0.691406 14.550781 0.613281 14.824219 0.609375 C 15.097656 0.605469 15.355469 0.671875 15.589844 0.8125 C 15.828125 0.949219 16.007812 1.140625 16.132812 1.382812 L 19.589844 8.015625 C 19.824219 8.460938 20.191406 8.714844 20.691406 8.777344 L 28.171875 9.71875 C 28.445312 9.753906 28.6875 9.859375 28.902344 10.027344 C 29.113281 10.199219 29.265625 10.414062 29.355469 10.671875 C 29.445312 10.929688 29.460938 11.191406 29.398438 11.457031 C 29.335938 11.722656 29.210938 11.953125 29.015625 12.144531 L 23.710938 17.449219 C 23.355469 17.804688 23.226562 18.230469 23.320312 18.722656 L 24.726562 26.054688 C 24.777344 26.320312 24.753906 26.582031 24.652344 26.835938 C 24.554688 27.089844 24.394531 27.300781 24.175781 27.464844 C 23.957031 27.625 23.710938 27.722656 23.4375 27.746094 C 23.164062 27.769531 22.902344 27.722656 22.65625 27.597656 Z M 22.65625 27.597656 " fill-opacity="1" fill-rule="nonzero"/></g></svg>