<svg xmlns="http://www.w3.org/2000/svg" xmlns:xlink="http://www.w3.org/1999/xlink" width="40" zoomAndPan="magnify" viewBox="0 0 30 30.000001" height="40" preserveAspectRatio="xMidYMid meet" version="1.0"><defs><clipPath id="3dfea8b851"><path d="M 2.886719 14 L 26.835938 14 L 26.835938 29.03125 L 2.886719 29.03125 Z M 2.886719 14 " clip-rule="nonzero"/></clipPath></defs><path fill="#fff" d="M 14.8125 13.988281 C 16.734375 13.988281 18.394531 13.296875 19.757812 11.9375 C 21.117188 10.578125 21.808594 8.914062 21.808594 6.996094 C 21.808594 5.074219 21.117188 3.414062 19.757812 2.054688 C 18.398438 0.691406 16.734375 0 14.8125 0 C 12.890625 0 11.230469 0.691406 9.871094 2.050781 C 8.511719 3.410156 7.820312 5.070312 7.820312 6.992188 C 7.820312 8.914062 8.511719 10.574219 9.871094 11.933594 C 11.230469 13.296875 12.890625 13.988281 14.8125 13.988281 Z M 14.8125 13.988281 " fill-opacity="1" fill-rule="nonzero"/><g clip-path="url(#3dfea8b851)"><path fill="#fff" d="M 27.046875 22.324219 C 27.003906 21.761719 26.929688 21.140625 26.808594 20.492188 C 26.691406 19.835938 26.539062 19.214844 26.355469 18.644531 C 26.167969 18.058594 25.914062 17.476562 25.59375 16.925781 C 25.269531 16.351562 24.878906 15.847656 24.449219 15.433594 C 23.996094 15.003906 23.445312 14.65625 22.808594 14.398438 C 22.167969 14.148438 21.464844 14.023438 20.710938 14.023438 C 20.414062 14.023438 20.128906 14.144531 19.574219 14.503906 C 19.230469 14.726562 18.835938 14.988281 18.386719 15.265625 C 18.003906 15.507812 17.496094 15.734375 16.855469 15.9375 C 16.234375 16.140625 15.601562 16.242188 14.980469 16.242188 C 14.359375 16.242188 13.726562 16.136719 13.105469 15.9375 C 12.464844 15.734375 11.953125 15.507812 11.570312 15.265625 C 11.128906 14.980469 10.730469 14.726562 10.386719 14.5 C 9.835938 14.140625 9.546875 14.015625 9.25 14.015625 C 8.496094 14.015625 7.792969 14.144531 7.152344 14.394531 C 6.515625 14.648438 5.964844 14.992188 5.511719 15.425781 C 5.082031 15.839844 4.691406 16.339844 4.367188 16.921875 C 4.050781 17.476562 3.796875 18.050781 3.605469 18.636719 C 3.425781 19.207031 3.273438 19.828125 3.152344 20.484375 C 3.035156 21.136719 2.957031 21.75 2.921875 22.320312 C 2.902344 22.878906 2.886719 23.457031 2.886719 24.039062 C 2.886719 25.554688 3.367188 26.777344 4.320312 27.683594 C 5.253906 28.578125 6.496094 29.03125 8.007812 29.03125 L 21.988281 29.03125 C 23.496094 29.03125 24.742188 28.578125 25.675781 27.683594 C 26.628906 26.777344 27.109375 25.554688 27.109375 24.039062 C 27.105469 23.453125 27.085938 22.878906 27.046875 22.324219 Z M 27.046875 22.324219 " fill-opacity="1" fill-rule="nonzero"/></g></svg>