<svg xmlns="http://www.w3.org/2000/svg" xmlns:xlink="http://www.w3.org/1999/xlink" width="40" zoomAndPan="magnify" viewBox="0 0 30 30.000001" height="40" preserveAspectRatio="xMidYMid meet" version="1.0"><defs><clipPath id="490276f93c"><path d="M 0.484375 0 L 29.515625 0 L 29.515625 29.03125 L 0.484375 29.03125 Z M 0.484375 0 " clip-rule="nonzero"/></clipPath></defs><g clip-path="url(#490276f93c)"><path fill="#fff" d="M 28.246094 29.019531 L 1.726562 29.019531 C 1.558594 29.019531 1.398438 28.984375 1.246094 28.921875 C 1.09375 28.859375 0.957031 28.765625 0.839844 28.648438 C 0.71875 28.53125 0.628906 28.394531 0.566406 28.242188 C 0.5 28.089844 0.46875 27.929688 0.46875 27.761719 L 0.46875 1.242188 C 0.46875 1.074219 0.5 0.914062 0.566406 0.761719 C 0.628906 0.609375 0.71875 0.472656 0.839844 0.355469 C 0.957031 0.238281 1.09375 0.144531 1.246094 0.0820312 C 1.398438 0.0195312 1.558594 -0.015625 1.726562 -0.015625 L 28.246094 -0.015625 C 28.410156 -0.015625 28.570312 0.0195312 28.726562 0.0820312 C 28.878906 0.144531 29.015625 0.238281 29.132812 0.355469 C 29.25 0.472656 29.34375 0.609375 29.40625 0.761719 C 29.46875 0.914062 29.5 1.074219 29.503906 1.242188 L 29.503906 27.761719 C 29.5 27.929688 29.46875 28.089844 29.40625 28.242188 C 29.34375 28.394531 29.25 28.53125 29.132812 28.648438 C 29.015625 28.765625 28.878906 28.859375 28.726562 28.921875 C 28.570312 28.984375 28.410156 29.019531 28.246094 29.019531 Z M 1.726562 0.695312 C 1.574219 0.695312 1.445312 0.746094 1.339844 0.855469 C 1.230469 0.960938 1.179688 1.089844 1.179688 1.242188 L 1.179688 27.761719 C 1.179688 27.914062 1.230469 28.042969 1.339844 28.148438 C 1.445312 28.257812 1.574219 28.308594 1.726562 28.308594 L 28.246094 28.308594 C 28.398438 28.308594 28.527344 28.257812 28.632812 28.148438 C 28.738281 28.042969 28.792969 27.914062 28.792969 27.761719 L 28.792969 1.242188 C 28.792969 1.089844 28.738281 0.960938 28.632812 0.855469 C 28.527344 0.746094 28.398438 0.695312 28.246094 0.695312 Z M 1.726562 0.695312 " fill-opacity="1" fill-rule="nonzero"/></g><path fill="#fff" d="M 15.050781 10.949219 L 9.574219 17.847656 L 15.222656 17.847656 L 15.222656 19.921875 L 6.472656 19.921875 L 6.472656 18.082031 L 11.9375 11.132812 L 6.835938 11.132812 L 6.835938 9.082031 L 15.046875 9.082031 Z M 15.050781 10.949219 " fill-opacity="1" fill-rule="nonzero"/><path fill="#fff" d="M 23.496094 19.921875 L 21.132812 19.921875 L 21.132812 15.417969 C 21.144531 15.042969 21.121094 14.671875 21.070312 14.300781 C 21.023438 14.09375 20.921875 13.921875 20.757812 13.789062 C 20.578125 13.640625 20.371094 13.570312 20.140625 13.578125 C 19.308594 13.578125 18.894531 14.191406 18.894531 15.417969 L 18.894531 19.921875 L 16.527344 19.921875 L 16.527344 11.902344 L 18.726562 11.902344 L 18.726562 13.257812 C 19.089844 12.613281 19.449219 12.199219 19.804688 12.011719 C 20.164062 11.824219 20.550781 11.730469 20.957031 11.734375 C 21.648438 11.703125 22.261719 11.90625 22.796875 12.351562 C 23.261719 12.761719 23.496094 13.566406 23.496094 14.769531 Z M 23.496094 19.921875 " fill-opacity="1" fill-rule="nonzero"/><path fill="#fff" d="M 13.886719 23.519531 L 12.1875 23.519531 L 12.1875 23.253906 L 13.523438 21.628906 L 12.3125 21.628906 L 12.3125 21.371094 L 13.851562 21.371094 L 13.851562 21.640625 L 12.515625 23.265625 L 13.886719 23.265625 Z M 13.886719 23.519531 " fill-opacity="1" fill-rule="nonzero"/><path fill="#fff" d="M 14.449219 21.671875 L 14.171875 21.671875 L 14.171875 21.371094 L 14.449219 21.371094 Z M 14.449219 23.519531 L 14.171875 23.519531 L 14.171875 21.964844 L 14.449219 21.964844 Z M 14.449219 23.519531 " fill-opacity="1" fill-rule="nonzero"/><path fill="#fff" d="M 15.132812 22.164062 C 15.25 22.011719 15.40625 21.933594 15.597656 21.929688 C 15.949219 21.929688 16.125 22.121094 16.125 22.503906 L 16.125 23.519531 L 15.847656 23.519531 L 15.847656 22.515625 C 15.855469 22.414062 15.832031 22.324219 15.777344 22.242188 C 15.71875 22.175781 15.644531 22.148438 15.554688 22.15625 C 15.375 22.171875 15.234375 22.253906 15.132812 22.40625 L 15.132812 23.519531 L 14.855469 23.519531 L 14.855469 21.964844 L 15.132812 21.964844 Z M 15.132812 22.164062 " fill-opacity="1" fill-rule="nonzero"/><path fill="#fff" d="M 17.15625 23.554688 C 16.945312 23.566406 16.769531 23.496094 16.625 23.34375 C 16.492188 23.164062 16.425781 22.964844 16.425781 22.742188 C 16.425781 22.519531 16.492188 22.320312 16.625 22.140625 C 16.753906 22.019531 16.910156 21.949219 17.089844 21.933594 C 17.265625 21.917969 17.429688 21.960938 17.582031 22.058594 C 17.703125 22.152344 17.769531 22.277344 17.78125 22.429688 L 17.5 22.429688 C 17.5 22.34375 17.464844 22.273438 17.394531 22.21875 C 17.324219 22.167969 17.242188 22.144531 17.15625 22.144531 C 17.023438 22.140625 16.917969 22.191406 16.835938 22.296875 C 16.65625 22.59375 16.65625 22.890625 16.835938 23.1875 C 16.917969 23.292969 17.023438 23.34375 17.15625 23.339844 C 17.242188 23.34375 17.324219 23.316406 17.394531 23.265625 C 17.464844 23.214844 17.5 23.144531 17.5 23.054688 L 17.78125 23.054688 C 17.769531 23.207031 17.703125 23.332031 17.582031 23.425781 C 17.453125 23.519531 17.3125 23.5625 17.15625 23.554688 Z M 17.15625 23.554688 " fill-opacity="1" fill-rule="nonzero"/><path fill="#fff" d="M 11.644531 25.949219 C 11.773438 25.796875 11.933594 25.722656 12.132812 25.71875 C 12.316406 25.714844 12.464844 25.78125 12.589844 25.914062 C 12.71875 26.054688 12.78125 26.21875 12.773438 26.410156 C 12.777344 26.609375 12.71875 26.78125 12.589844 26.933594 C 12.460938 27.082031 12.300781 27.15625 12.101562 27.148438 C 11.871094 27.15625 11.691406 27.066406 11.558594 26.878906 C 11.414062 26.640625 11.347656 26.382812 11.367188 26.105469 C 11.367188 25.320312 11.617188 24.925781 12.125 24.925781 C 12.277344 24.921875 12.414062 24.964844 12.535156 25.058594 C 12.65625 25.164062 12.722656 25.300781 12.738281 25.460938 L 12.453125 25.460938 C 12.457031 25.367188 12.421875 25.289062 12.355469 25.226562 C 12.285156 25.160156 12.203125 25.132812 12.113281 25.140625 C 11.960938 25.144531 11.855469 25.214844 11.792969 25.351562 C 11.695312 25.539062 11.648438 25.738281 11.644531 25.949219 Z M 11.644531 26.164062 C 11.636719 26.367188 11.675781 26.554688 11.769531 26.730469 C 11.839844 26.863281 11.949219 26.929688 12.09375 26.929688 C 12.214844 26.933594 12.3125 26.886719 12.382812 26.785156 C 12.457031 26.679688 12.492188 26.558594 12.488281 26.429688 C 12.492188 26.296875 12.457031 26.179688 12.378906 26.074219 C 12.304688 25.976562 12.207031 25.929688 12.085938 25.933594 C 11.90625 25.945312 11.757812 26.023438 11.644531 26.164062 Z M 11.644531 26.164062 " fill-opacity="1" fill-rule="nonzero"/><path fill="#fff" d="M 13.382812 25.8125 C 13.5 25.722656 13.632812 25.679688 13.78125 25.683594 C 13.964844 25.683594 14.121094 25.746094 14.25 25.875 C 14.390625 26.011719 14.457031 26.183594 14.449219 26.378906 C 14.453125 26.589844 14.386719 26.773438 14.246094 26.929688 C 14.101562 27.082031 13.925781 27.15625 13.714844 27.148438 C 13.542969 27.152344 13.386719 27.101562 13.25 26.996094 C 13.109375 26.878906 13.035156 26.730469 13.023438 26.546875 L 13.308594 26.546875 C 13.316406 26.660156 13.363281 26.757812 13.445312 26.835938 C 13.523438 26.902344 13.613281 26.933594 13.714844 26.929688 C 13.847656 26.933594 13.957031 26.882812 14.039062 26.777344 C 14.125 26.667969 14.167969 26.546875 14.160156 26.40625 C 14.167969 26.269531 14.128906 26.152344 14.035156 26.050781 C 13.945312 25.957031 13.835938 25.914062 13.710938 25.917969 C 13.550781 25.917969 13.421875 25.976562 13.320312 26.097656 L 13.101562 26.097656 L 13.191406 24.964844 L 14.34375 24.964844 L 14.34375 25.21875 L 13.429688 25.21875 Z M 13.382812 25.8125 " fill-opacity="1" fill-rule="nonzero"/><path fill="#fff" d="M 14.835938 26.808594 L 15.136719 26.808594 L 15.136719 27.109375 L 14.835938 27.109375 Z M 14.835938 26.808594 " fill-opacity="1" fill-rule="nonzero"/><path fill="#fff" d="M 16.535156 25.929688 C 16.660156 25.960938 16.761719 26.027344 16.835938 26.128906 C 16.910156 26.234375 16.945312 26.347656 16.941406 26.476562 C 16.949219 26.667969 16.882812 26.828125 16.738281 26.960938 C 16.59375 27.078125 16.429688 27.140625 16.242188 27.144531 C 16.054688 27.148438 15.886719 27.09375 15.738281 26.980469 C 15.605469 26.863281 15.539062 26.71875 15.535156 26.542969 L 15.820312 26.542969 C 15.820312 26.648438 15.855469 26.738281 15.925781 26.816406 C 16.015625 26.894531 16.117188 26.929688 16.238281 26.929688 C 16.355469 26.925781 16.457031 26.886719 16.542969 26.804688 C 16.625 26.710938 16.660156 26.605469 16.65625 26.480469 C 16.664062 26.359375 16.625 26.257812 16.539062 26.171875 C 16.4375 26.089844 16.320312 26.050781 16.191406 26.0625 L 16.082031 26.0625 L 16.082031 25.847656 L 16.148438 25.847656 C 16.414062 25.847656 16.546875 25.722656 16.546875 25.476562 C 16.554688 25.382812 16.527344 25.300781 16.460938 25.230469 C 16.34375 25.132812 16.214844 25.113281 16.078125 25.171875 C 15.9375 25.230469 15.859375 25.332031 15.847656 25.484375 L 15.5625 25.484375 C 15.574219 25.316406 15.644531 25.175781 15.769531 25.070312 C 15.898438 24.96875 16.042969 24.921875 16.207031 24.925781 C 16.382812 24.917969 16.535156 24.96875 16.664062 25.082031 C 16.785156 25.191406 16.839844 25.324219 16.835938 25.484375 C 16.835938 25.578125 16.808594 25.664062 16.761719 25.742188 C 16.707031 25.832031 16.628906 25.894531 16.535156 25.929688 Z M 16.535156 25.929688 " fill-opacity="1" fill-rule="nonzero"/><path fill="#fff" d="M 18.324219 26.121094 C 18.199219 26.273438 18.035156 26.351562 17.835938 26.355469 C 17.65625 26.355469 17.503906 26.292969 17.382812 26.160156 C 17.253906 26.019531 17.191406 25.851562 17.199219 25.660156 C 17.191406 25.464844 17.253906 25.289062 17.382812 25.140625 C 17.511719 24.988281 17.671875 24.917969 17.871094 24.925781 C 18.101562 24.917969 18.28125 25.003906 18.414062 25.195312 C 18.558594 25.429688 18.625 25.6875 18.605469 25.96875 C 18.605469 26.753906 18.351562 27.148438 17.847656 27.148438 C 17.691406 27.152344 17.558594 27.105469 17.4375 27.011719 C 17.316406 26.90625 17.246094 26.773438 17.234375 26.613281 L 17.519531 26.613281 C 17.515625 26.707031 17.550781 26.785156 17.617188 26.847656 C 17.6875 26.910156 17.769531 26.9375 17.859375 26.929688 C 18.011719 26.925781 18.117188 26.855469 18.179688 26.722656 C 18.273438 26.53125 18.324219 26.332031 18.324219 26.121094 Z M 18.328125 25.90625 C 18.335938 25.707031 18.292969 25.519531 18.203125 25.339844 C 18.132812 25.210938 18.023438 25.144531 17.875 25.140625 C 17.753906 25.140625 17.660156 25.1875 17.589844 25.285156 C 17.515625 25.394531 17.476562 25.511719 17.484375 25.644531 C 17.476562 25.773438 17.515625 25.894531 17.59375 26 C 17.667969 26.09375 17.761719 26.140625 17.886719 26.136719 C 18.066406 26.125 18.214844 26.050781 18.328125 25.90625 Z M 18.328125 25.90625 " fill-opacity="1" fill-rule="nonzero"/><path fill="#fff" d="M 4.5625 4.28125 C 4.738281 4.320312 4.875 4.414062 4.980469 4.554688 C 5.082031 4.699219 5.132812 4.863281 5.128906 5.039062 C 5.136719 5.304688 5.042969 5.527344 4.847656 5.707031 C 4.648438 5.875 4.417969 5.960938 4.160156 5.964844 C 3.898438 5.972656 3.667969 5.894531 3.460938 5.734375 C 3.277344 5.574219 3.183594 5.375 3.179688 5.128906 L 3.574219 5.128906 C 3.574219 5.277344 3.621094 5.402344 3.722656 5.507812 C 3.84375 5.613281 3.988281 5.667969 4.152344 5.664062 C 4.316406 5.664062 4.457031 5.605469 4.574219 5.492188 C 4.6875 5.367188 4.742188 5.214844 4.734375 5.046875 C 4.746094 4.878906 4.6875 4.734375 4.566406 4.613281 C 4.425781 4.5 4.265625 4.453125 4.085938 4.464844 L 3.9375 4.464844 L 3.9375 4.164062 L 4.027344 4.164062 C 4.398438 4.164062 4.582031 3.992188 4.582031 3.652344 C 4.589844 3.519531 4.550781 3.40625 4.460938 3.308594 C 4.363281 3.222656 4.25 3.179688 4.117188 3.1875 C 3.980469 3.175781 3.859375 3.21875 3.757812 3.3125 C 3.65625 3.40625 3.609375 3.523438 3.609375 3.660156 L 3.21875 3.660156 C 3.230469 3.429688 3.328125 3.238281 3.503906 3.085938 C 3.683594 2.949219 3.882812 2.882812 4.109375 2.890625 C 4.347656 2.875 4.558594 2.949219 4.742188 3.105469 C 4.90625 3.253906 4.984375 3.441406 4.976562 3.664062 C 4.976562 3.792969 4.945312 3.910156 4.875 4.023438 C 4.800781 4.144531 4.695312 4.230469 4.5625 4.28125 Z M 4.5625 4.28125 " fill-opacity="1" fill-rule="nonzero"/><path fill="#fff" d="M 6.460938 2.890625 C 7.109375 2.890625 7.433594 3.402344 7.433594 4.429688 C 7.433594 5.453125 7.109375 5.964844 6.460938 5.964844 C 5.816406 5.964844 5.492188 5.453125 5.492188 4.429688 C 5.492188 3.402344 5.816406 2.890625 6.460938 2.890625 Z M 6.460938 5.664062 C 6.664062 5.667969 6.808594 5.578125 6.890625 5.394531 C 7.011719 5.082031 7.058594 4.761719 7.035156 4.429688 C 7.058594 4.097656 7.011719 3.773438 6.890625 3.464844 C 6.808594 3.28125 6.664062 3.1875 6.464844 3.1875 C 6.261719 3.1875 6.117188 3.28125 6.035156 3.464844 C 5.914062 3.773438 5.867188 4.097656 5.890625 4.429688 C 5.867188 4.761719 5.914062 5.082031 6.035156 5.394531 C 6.117188 5.578125 6.261719 5.667969 6.460938 5.664062 Z M 6.460938 5.664062 " fill-opacity="1" fill-rule="nonzero"/></svg>